<svg xmlns="http://www.w3.org/2000/svg" width="245" height="57.91643618807377" viewBox="0 0 245 57.91643618807377" class="editor-view__logo-preview" data-v-8d8ae3dd="" data-v-b9d2a614=""><svg id="mark" viewBox="0 0 100 100" width="54" height="54" x="0" y="1.9582180940368836" data-v-8d8ae3dd="" style="fill: rgb(10, 38, 71);"><rect x="0" y="0" width="100%" height="100%" fill="none" data-v-8d8ae3dd=""></rect><g data-v-8d8ae3dd=""><g xmlns="http://www.w3.org/2000/svg"><path d="M49.569,22.967c-9.975-5.691-20.677-9.125-31.045-9.962v58.351c10.367,0.814,21.05,4.154,31.045,9.699V22.967z"></path><path d="M49.229,84.073c0.814,0.278,1.671,0.29,2.485,0.012c11.657-5.043,23.865-7.313,35.798-6.79V19.524   c-1.074-0.048-2.155-0.059-3.24-0.055v53.594l-0.852,0.056c-10.672,0.697-21.732,4.177-32.021,10.048   c-0.594,0.203-1.237,0.203-1.83,0c-10.29-5.871-21.349-9.351-32.021-10.048l-0.854-0.056V19.469   c-1.084-0.004-2.166,0.006-3.239,0.055v57.771C25.387,76.771,37.569,79.03,49.229,84.073z"></path><path d="M92.579,26.009c-1.07-0.149-2.157-0.228-3.237-0.335v53.55l-0.968-0.056c-12.195-0.699-25.06,1.777-36.975,7.065   l-0.916,0.381l-0.915-0.381c-11.917-5.288-24.781-7.765-36.976-7.065l-0.967,0.056v-53.55c-1.081,0.108-2.168,0.187-3.238,0.335   v58.707c0.594,0.307,1.044,0.748,1.044,0.748c12.951-1.75,26.393-1.536,39.18,2.651c0.588-0.058,1.212-0.095,1.873-0.095   c0.661,0,1.285,0.037,1.872,0.095c12.785-4.188,26.229-4.401,39.179-2.651c0,0,0.474-0.462,1.044-0.748V26.009z"></path><path d="M65.283,16.667v20.625l-3.98-4.738l-4.195,4.738V19.994c-1.924,0.91-3.829,1.901-5.708,2.974v58.087   c9.993-5.545,20.679-8.885,31.045-9.699V13.005C76.766,13.464,70.987,14.706,65.283,16.667z"></path></g></g></svg><svg id="name" viewBox="0 0 175.779296875 34.94921875" width="175" height="34.79427549194991" x="70" y="4" data-v-8d8ae3dd="" style="fill: rgb(44, 116, 179);"><rect x="0" y="0" width="100%" height="100%" fill="none" data-v-8d8ae3dd=""></rect><g data-v-8d8ae3dd=""><path xmlns="http://www.w3.org/2000/svg" d="M12.71 34.50L0 34.50L0 1.80L11.46 1.80Q17.41 1.80 20.48 4.08Q23.56 6.36 23.56 10.76L23.56 10.76Q23.56 13.16 22.33 14.99Q21.09 16.82 18.89 17.68L18.89 17.68Q21.41 18.31 22.85 20.21Q24.30 22.12 24.30 24.89L24.30 24.89Q24.30 29.60 21.29 32.03Q18.28 34.46 12.71 34.50L12.71 34.50ZM12.92 20.26L6.74 20.26L6.74 29.09L12.51 29.09Q14.89 29.09 16.23 27.95Q17.56 26.82 17.56 24.82L17.56 24.82Q17.56 20.33 12.92 20.26L12.92 20.26ZM6.74 7.25L6.74 15.50L11.72 15.50Q16.82 15.41 16.82 11.43L16.82 11.43Q16.82 9.21 15.53 8.23Q14.24 7.25 11.46 7.25L11.46 7.25L6.74 7.25ZM27.92 22.42L27.92 22.12Q27.92 18.51 29.31 15.68Q30.70 12.85 33.32 11.30Q35.94 9.75 39.40 9.75L39.40 9.75Q44.32 9.75 47.43 12.76Q50.54 15.77 50.90 20.93L50.90 20.93L50.94 22.60Q50.94 28.19 47.82 31.57Q44.70 34.95 39.44 34.95Q34.19 34.95 31.05 31.58Q27.92 28.21 27.92 22.42L27.92 22.42ZM34.41 22.60L34.41 22.60Q34.41 26.05 35.71 27.89Q37.02 29.72 39.44 29.72L39.44 29.72Q41.80 29.72 43.13 27.91Q44.45 26.10 44.45 22.12L44.45 22.12Q44.45 18.73 43.13 16.87Q41.80 15.00 39.40 15.00L39.40 15.00Q37.02 15.00 35.71 16.86Q34.41 18.71 34.41 22.60ZM53.93 22.42L53.93 22.12Q53.93 18.51 55.32 15.68Q56.71 12.85 59.33 11.30Q61.95 9.75 65.41 9.75L65.41 9.75Q70.33 9.75 73.44 12.76Q76.55 15.77 76.91 20.93L76.91 20.93L76.95 22.60Q76.95 28.19 73.83 31.57Q70.71 34.95 65.45 34.95Q60.20 34.95 57.06 31.58Q53.93 28.21 53.93 22.42L53.93 22.42ZM60.42 22.60L60.42 22.60Q60.42 26.05 61.72 27.89Q63.03 29.72 65.45 29.72L65.45 29.72Q67.81 29.72 69.13 27.91Q70.46 26.10 70.46 22.12L70.46 22.12Q70.46 18.73 69.13 16.87Q67.81 15.00 65.41 15.00L65.41 15.00Q63.03 15.00 61.72 16.86Q60.42 18.71 60.42 22.60ZM96.02 34.50L89.78 24.75L87.44 27.09L87.44 34.50L80.95 34.50L80.95 0L87.44 0L87.44 19.11L88.70 17.50L94.92 10.20L102.71 10.20L93.93 20.33L103.48 34.50L96.02 34.50ZM126.68 34.50L124.41 27.76L112.60 27.76L110.35 34.50L103.19 34.50L115.36 1.80L121.60 1.80L133.84 34.50L126.68 34.50ZM118.48 10.06L114.42 22.30L122.59 22.30L118.48 10.06ZM150.22 10.04L150.13 16.28Q148.80 16.10 147.79 16.10L147.79 16.10Q144.11 16.10 142.96 18.60L142.96 18.60L142.96 34.50L136.47 34.50L136.47 10.20L142.60 10.20L142.78 13.09Q144.74 9.75 148.20 9.75L148.20 9.75Q149.28 9.75 150.22 10.04L150.22 10.04ZM168.32 34.50L162.08 24.75L159.74 27.09L159.74 34.50L153.25 34.50L153.25 0L159.74 0L159.74 19.11L161 17.50L167.22 10.20L175.02 10.20L166.23 20.33L175.78 34.50L168.32 34.50Z"></path></g></svg><svg id="slogan" viewBox="0 0 172.83203125 15.1953125" width="172" height="15.122160696123856" x="70" y="42.79427549194991" data-v-8d8ae3dd="" style="fill: rgb(20, 66, 114);"><rect x="0" y="0" width="100%" height="100%" fill="none" data-v-8d8ae3dd=""></rect><g data-v-8d8ae3dd=""><path xmlns="http://www.w3.org/2000/svg" d="M8.55 6.54L8.55 8.84L2.93 8.84L2.93 12.65L9.53 12.65L9.53 15L0 15L0 0.78L9.51 0.78L9.51 3.15L2.93 3.15L2.93 6.54L8.55 6.54ZM14.04 0L14.04 15L11.21 15L11.21 0L14.04 0ZM30.32 15L27.47 15Q27.28 14.62 27.19 14.05L27.19 14.05Q26.16 15.20 24.52 15.20L24.52 15.20Q22.97 15.20 21.95 14.30Q20.93 13.40 20.93 12.03L20.93 12.03Q20.93 10.35 22.17 9.45Q23.42 8.55 25.77 8.54L25.77 8.54L27.07 8.54L27.07 7.94Q27.07 7.21 26.69 6.77Q26.32 6.33 25.51 6.33L25.51 6.33Q24.79 6.33 24.39 6.67Q23.98 7.01 23.98 7.61L23.98 7.61L21.16 7.61Q21.16 6.69 21.73 5.91Q22.29 5.13 23.33 4.68Q24.37 4.24 25.65 4.24L25.65 4.24Q27.61 4.24 28.75 5.22Q29.90 6.20 29.90 7.98L29.90 7.98L29.90 12.56Q29.91 14.06 30.32 14.83L30.32 14.83L30.32 15ZM25.14 13.04L25.14 13.04Q25.76 13.04 26.29 12.76Q26.82 12.48 27.07 12.01L27.07 12.01L27.07 10.20L26.02 10.20Q23.90 10.20 23.76 11.66L23.76 11.66L23.75 11.83Q23.75 12.35 24.12 12.70Q24.49 13.04 25.14 13.04ZM38.05 4.37L38.01 7.08Q37.43 7.00 36.99 7.00L36.99 7.00Q35.39 7.00 34.89 8.09L34.89 8.09L34.89 15L32.07 15L32.07 4.43L34.74 4.43L34.81 5.69Q35.66 4.24 37.17 4.24L37.17 4.24Q37.64 4.24 38.05 4.37L38.05 4.37ZM43.57 12.92L43.57 12.92Q44.36 12.92 44.84 12.49Q45.33 12.06 45.35 11.35L45.35 11.35L48.00 11.35Q47.99 12.42 47.41 13.32Q46.84 14.21 45.83 14.70Q44.83 15.20 43.62 15.20L43.62 15.20Q41.36 15.20 40.05 13.75Q38.74 12.31 38.74 9.78L38.74 9.78L38.74 9.59Q38.74 7.15 40.04 5.69Q41.34 4.24 43.60 4.24L43.60 4.24Q45.59 4.24 46.78 5.37Q47.98 6.49 48.00 8.37L48.00 8.37L45.35 8.37Q45.33 7.55 44.84 7.04Q44.36 6.52 43.55 6.52L43.55 6.52Q42.57 6.52 42.07 7.24Q41.56 7.96 41.56 9.57L41.56 9.57L41.56 9.86Q41.56 11.49 42.06 12.21Q42.56 12.92 43.57 12.92ZM58.58 15L55.73 15Q55.54 14.62 55.45 14.05L55.45 14.05Q54.42 15.20 52.78 15.20L52.78 15.20Q51.23 15.20 50.21 14.30Q49.19 13.40 49.19 12.03L49.19 12.03Q49.19 10.35 50.43 9.45Q51.68 8.55 54.03 8.54L54.03 8.54L55.33 8.54L55.33 7.94Q55.33 7.21 54.96 6.77Q54.58 6.33 53.77 6.33L53.77 6.33Q53.06 6.33 52.65 6.67Q52.25 7.01 52.25 7.61L52.25 7.61L49.42 7.61Q49.42 6.69 49.99 5.91Q50.56 5.13 51.59 4.68Q52.63 4.24 53.92 4.24L53.92 4.24Q55.87 4.24 57.02 5.22Q58.16 6.20 58.16 7.98L58.16 7.98L58.16 12.56Q58.17 14.06 58.58 14.83L58.58 14.83L58.58 15ZM53.40 13.04L53.40 13.04Q54.02 13.04 54.55 12.76Q55.08 12.48 55.33 12.01L55.33 12.01L55.33 10.20L54.28 10.20Q52.16 10.20 52.02 11.66L52.02 11.66L52.01 11.83Q52.01 12.35 52.38 12.70Q52.75 13.04 53.40 13.04ZM64.87 9.64L64.87 9.64Q64.87 7.17 65.98 5.70Q67.09 4.24 69.01 4.24L69.01 4.24Q70.56 4.24 71.56 5.39L71.56 5.39L71.56 0L74.39 0L74.39 15L71.85 15L71.71 13.88Q70.65 15.20 68.99 15.20L68.99 15.20Q67.13 15.20 66.00 13.73Q64.87 12.26 64.87 9.64ZM67.70 9.84L67.70 9.84Q67.70 11.33 68.21 12.12Q68.73 12.91 69.72 12.91L69.72 12.91Q71.03 12.91 71.56 11.81L71.56 11.81L71.56 7.64Q71.04 6.53 69.74 6.53L69.74 6.53Q67.70 6.53 67.70 9.84ZM81.45 15.20L81.45 15.20Q79.12 15.20 77.66 13.77Q76.20 12.34 76.20 9.97L76.20 9.97L76.20 9.70Q76.20 8.11 76.82 6.85Q77.43 5.60 78.56 4.92Q79.69 4.24 81.13 4.24L81.13 4.24Q83.30 4.24 84.55 5.61Q85.79 6.97 85.79 9.48L85.79 9.48L85.79 10.63L79.06 10.63Q79.20 11.67 79.89 12.29Q80.58 12.92 81.63 12.92L81.63 12.92Q83.26 12.92 84.18 11.74L84.18 11.74L85.57 13.29Q84.93 14.19 83.85 14.69Q82.76 15.20 81.45 15.20ZM81.12 6.52L81.12 6.52Q80.28 6.52 79.76 7.09Q79.24 7.66 79.09 8.71L79.09 8.71L83.02 8.71L83.02 8.49Q83.00 7.55 82.51 7.04Q82.02 6.52 81.12 6.52ZM95.35 0L95.35 15L92.52 15L92.52 0L95.35 0ZM97.24 9.75L97.24 9.62Q97.24 8.05 97.84 6.82Q98.45 5.59 99.58 4.91Q100.72 4.24 102.23 4.24L102.23 4.24Q104.37 4.24 105.72 5.55Q107.07 6.86 107.23 9.10L107.23 9.10L107.25 9.82Q107.25 12.26 105.89 13.73Q104.53 15.20 102.25 15.20Q99.96 15.20 98.60 13.73Q97.24 12.27 97.24 9.75L97.24 9.75ZM100.06 9.82L100.06 9.82Q100.06 11.33 100.63 12.12Q101.19 12.92 102.25 12.92L102.25 12.92Q103.27 12.92 103.85 12.13Q104.42 11.35 104.42 9.62L104.42 9.62Q104.42 8.14 103.85 7.33Q103.27 6.52 102.23 6.52L102.23 6.52Q101.19 6.52 100.63 7.33Q100.06 8.13 100.06 9.82ZM114.71 12.08L114.71 12.08Q114.71 11.56 114.19 11.26Q113.68 10.97 112.55 10.73L112.55 10.73Q108.78 9.94 108.78 7.53L108.78 7.53Q108.78 6.12 109.95 5.18Q111.11 4.24 113.00 4.24L113.00 4.24Q115.01 4.24 116.22 5.19Q117.42 6.13 117.42 7.65L117.42 7.65L114.60 7.65Q114.60 7.04 114.21 6.65Q113.82 6.25 112.99 6.25L112.99 6.25Q112.28 6.25 111.88 6.57Q111.49 6.89 111.49 7.39L111.49 7.39Q111.49 7.86 111.94 8.15Q112.38 8.44 113.44 8.65Q114.49 8.86 115.21 9.12L115.21 9.12Q117.45 9.94 117.45 11.96L117.45 11.96Q117.45 13.41 116.21 14.30Q114.97 15.20 113.01 15.20L113.01 15.20Q111.68 15.20 110.65 14.72Q109.62 14.25 109.03 13.42Q108.45 12.60 108.45 11.64L108.45 11.64L111.12 11.64Q111.16 12.39 111.68 12.79Q112.20 13.19 113.07 13.19L113.07 13.19Q113.88 13.19 114.29 12.89Q114.71 12.58 114.71 12.08ZM127.23 0L127.23 15L124.39 15L124.39 0L127.23 0ZM132.53 4.43L132.53 15L129.70 15L129.70 4.43L132.53 4.43ZM129.53 1.70L129.53 1.70Q129.53 1.06 129.96 0.65Q130.38 0.24 131.11 0.24L131.11 0.24Q131.84 0.24 132.27 0.65Q132.70 1.06 132.70 1.70L132.70 1.70Q132.70 2.34 132.26 2.75Q131.83 3.16 131.11 3.16Q130.40 3.16 129.97 2.75Q129.53 2.34 129.53 1.70ZM144.38 9.66L144.38 9.81Q144.38 12.35 143.29 13.77Q142.21 15.20 140.26 15.20L140.26 15.20Q138.54 15.20 137.52 13.88L137.52 13.88L137.39 15L134.85 15L134.85 0L137.68 0L137.68 5.38Q138.65 4.24 140.24 4.24L140.24 4.24Q142.18 4.24 143.28 5.66Q144.38 7.08 144.38 9.66L144.38 9.66ZM141.55 9.61L141.55 9.61Q141.55 8.01 141.04 7.27Q140.54 6.53 139.53 6.53L139.53 6.53Q138.18 6.53 137.68 7.64L137.68 7.64L137.68 11.81Q138.19 12.92 139.55 12.92L139.55 12.92Q140.92 12.92 141.35 11.57L141.35 11.57Q141.55 10.93 141.55 9.61ZM152.09 4.37L152.05 7.08Q151.47 7.00 151.04 7.00L151.04 7.00Q149.43 7.00 148.94 8.09L148.94 8.09L148.94 15L146.11 15L146.11 4.43L148.78 4.43L148.86 5.69Q149.71 4.24 151.21 4.24L151.21 4.24Q151.68 4.24 152.09 4.37L152.09 4.37ZM152.62 9.75L152.62 9.62Q152.62 8.05 153.22 6.82Q153.83 5.59 154.97 4.91Q156.10 4.24 157.61 4.24L157.61 4.24Q159.75 4.24 161.10 5.55Q162.45 6.86 162.61 9.10L162.61 9.10L162.63 9.82Q162.63 12.26 161.27 13.73Q159.91 15.20 157.63 15.20Q155.34 15.20 153.98 13.73Q152.62 12.27 152.62 9.75L152.62 9.75ZM155.44 9.82L155.44 9.82Q155.44 11.33 156.01 12.12Q156.57 12.92 157.63 12.92L157.63 12.92Q158.65 12.92 159.23 12.13Q159.80 11.35 159.80 9.62L159.80 9.62Q159.80 8.14 159.23 7.33Q158.65 6.52 157.61 6.52L157.61 6.52Q156.57 6.52 156.01 7.33Q155.44 8.13 155.44 9.82ZM170.09 12.08L170.09 12.08Q170.09 11.56 169.58 11.26Q169.06 10.97 167.93 10.73L167.93 10.73Q164.16 9.94 164.16 7.53L164.16 7.53Q164.16 6.12 165.33 5.18Q166.49 4.24 168.38 4.24L168.38 4.24Q170.39 4.24 171.60 5.19Q172.80 6.13 172.80 7.65L172.80 7.65L169.98 7.65Q169.98 7.04 169.59 6.65Q169.20 6.25 168.37 6.25L168.37 6.25Q167.66 6.25 167.27 6.57Q166.88 6.89 166.88 7.39L166.88 7.39Q166.88 7.86 167.32 8.15Q167.76 8.44 168.82 8.65Q169.87 8.86 170.60 9.12L170.60 9.12Q172.83 9.94 172.83 11.96L172.83 11.96Q172.83 13.41 171.59 14.30Q170.35 15.20 168.39 15.20L168.39 15.20Q167.06 15.20 166.03 14.72Q165 14.25 164.41 13.42Q163.83 12.60 163.83 11.64L163.83 11.64L166.50 11.64Q166.54 12.39 167.06 12.79Q167.58 13.19 168.45 13.19L168.45 13.19Q169.26 13.19 169.67 12.89Q170.09 12.58 170.09 12.08Z"></path></g></svg></svg>