<svg id="svg" version="1.1" xmlns="http://www.w3.org/2000/svg" xmlns:xlink="http://www.w3.org/1999/xlink" width="400" height="400" viewBox="0, 0, 400,400"><g id="svgg"><path id="path0" d="M94.472 71.717 L 94.600 80.234 95.901 81.875 C 96.616 82.778,111.845 98.160,129.742 116.058 C 159.504 145.821,162.505 148.942,164.881 152.600 C 170.423 161.136,173.963 169.561,176.944 181.313 C 177.527 183.611,177.525 183.631,176.564 184.261 C 175.389 185.030,175.754 185.293,169.824 179.400 C 165.142 174.748,159.290 169.070,144.053 154.400 C 138.912 149.450,133.332 144.044,131.653 142.386 C 129.974 140.728,124.550 135.528,119.600 130.829 C 114.650 126.131,109.860 121.547,108.955 120.643 C 105.436 117.129,97.474 109.459,90.414 102.784 C 86.352 98.943,81.852 94.666,80.414 93.280 C 78.976 91.894,76.810 89.806,75.600 88.638 C 69.060 82.329,65.825 80.234,64.724 81.595 C 63.711 82.846,63.589 196.788,64.595 202.200 C 67.068 215.502,69.109 218.187,101.300 250.501 C 114.741 263.993,122.400 271.965,122.400 272.463 C 122.400 273.188,119.041 276.639,115.600 279.451 C 114.830 280.080,114.003 280.776,113.762 280.997 C 113.019 281.681,106.012 287.354,101.717 290.750 C 96.642 294.764,82.618 305.356,77.800 308.815 C 75.820 310.237,74.020 311.540,73.800 311.711 C 71.551 313.458,66.973 316.808,63.300 319.394 C 60.825 321.137,58.800 322.706,58.800 322.882 C 58.800 323.131,105.503 323.467,108.013 323.236 C 108.899 323.154,110.352 324.643,110.623 325.911 C 110.751 326.510,111.096 327.720,111.390 328.600 C 111.684 329.480,112.230 331.280,112.602 332.600 C 112.975 333.920,113.434 335.360,113.622 335.800 C 113.952 336.572,115.641 341.734,116.370 344.200 C 116.565 344.860,117.123 346.750,117.611 348.400 C 118.786 352.377,118.898 352.453,120.841 350.581 C 122.402 349.076,132.364 338.225,133.881 336.378 C 134.276 335.896,134.877 335.209,135.216 334.851 C 135.555 334.493,136.815 333.030,138.016 331.600 C 139.217 330.170,140.417 328.771,140.681 328.490 C 140.946 328.210,141.846 327.130,142.681 326.091 C 143.517 325.051,144.380 324.000,144.600 323.754 C 145.301 322.970,150.284 316.719,153.013 313.200 C 154.462 311.330,155.863 309.529,156.124 309.198 C 156.386 308.866,157.856 306.886,159.392 304.798 C 160.927 302.709,162.281 300.910,162.401 300.800 C 162.521 300.690,162.941 300.093,163.336 299.474 C 163.730 298.854,164.310 298.044,164.623 297.674 C 166.257 295.745,178.790 277.228,184.600 268.161 C 185.040 267.474,185.917 266.032,186.548 264.956 C 187.179 263.880,188.214 262.230,188.848 261.288 C 189.482 260.347,190.000 259.402,190.000 259.188 C 190.000 258.975,190.180 258.800,190.400 258.800 C 190.620 258.800,190.800 258.617,190.800 258.393 C 190.800 258.169,191.664 256.593,192.720 254.891 C 193.775 253.189,194.773 251.527,194.935 251.198 C 195.098 250.869,195.449 250.238,195.716 249.796 C 197.207 247.319,200.299 241.894,201.515 239.621 C 202.287 238.179,203.505 235.920,204.223 234.600 C 206.453 230.501,209.837 223.940,214.021 215.600 C 215.180 213.290,216.270 211.130,216.444 210.800 C 216.617 210.470,217.682 208.220,218.810 205.800 C 221.717 199.563,225.896 191.305,226.400 190.800 C 226.510 190.690,227.125 189.610,227.767 188.400 C 228.409 187.190,229.624 185.152,230.467 183.872 C 231.310 182.591,232.000 181.391,232.000 181.205 C 232.000 181.019,232.139 180.807,232.308 180.733 C 232.477 180.660,233.292 179.610,234.117 178.400 C 238.005 172.704,242.026 167.912,246.702 163.400 C 250.243 159.984,250.299 160.424,246.100 158.636 C 244.175 157.817,242.090 156.888,241.468 156.573 C 240.845 156.258,240.026 156.000,239.648 156.000 C 239.269 156.000,238.789 155.853,238.580 155.673 C 238.371 155.493,236.886 154.831,235.279 154.201 C 233.673 153.571,232.267 152.908,232.155 152.728 C 232.044 152.548,231.609 152.400,231.189 152.400 C 230.526 152.400,228.737 151.656,226.305 150.368 C 225.923 150.166,225.372 150.000,225.081 150.000 C 224.789 150.000,223.805 149.640,222.894 149.200 C 220.610 148.096,215.698 148.101,213.256 149.209 C 212.297 149.644,211.265 150.000,210.962 150.000 C 210.334 150.000,207.392 151.752,203.600 154.385 C 200.331 156.654,195.102 161.643,192.102 165.354 C 190.837 166.919,189.707 168.290,189.592 168.400 C 189.477 168.510,188.596 169.822,187.635 171.315 C 185.746 174.248,185.058 174.513,184.897 172.369 C 184.343 164.976,181.528 151.394,180.293 150.160 C 180.132 149.999,180.000 149.610,180.000 149.296 C 180.000 148.703,177.531 143.636,176.055 141.200 C 175.589 140.430,175.086 139.530,174.938 139.200 C 174.688 138.639,171.784 134.797,169.855 132.472 C 169.385 131.906,168.182 130.623,167.182 129.621 C 164.816 127.252,147.507 110.884,134.611 98.822 C 132.625 96.965,130.349 94.805,129.553 94.022 C 128.757 93.240,126.058 90.710,123.556 88.400 C 121.053 86.090,117.565 82.839,115.803 81.175 C 114.041 79.511,111.623 77.261,110.428 76.175 C 106.603 72.697,105.871 72.012,101.983 68.272 C 97.121 63.593,96.607 63.200,95.367 63.200 L 94.343 63.200 94.472 71.717 M370.600 157.650 C 369.940 157.859,368.050 158.191,366.400 158.386 C 364.750 158.582,361.870 159.006,360.000 159.328 C 358.130 159.651,354.530 160.200,352.000 160.548 C 349.470 160.896,346.770 161.275,346.000 161.391 C 345.230 161.507,343.258 161.776,341.617 161.990 C 339.976 162.205,337.726 162.559,336.617 162.779 C 335.508 162.998,332.080 163.546,329.000 163.996 C 325.920 164.446,321.780 165.072,319.800 165.387 C 313.071 166.458,310.204 166.884,307.600 167.201 C 304.961 167.522,303.038 167.823,294.800 169.205 C 292.270 169.630,288.220 170.256,285.800 170.597 C 283.380 170.939,280.500 171.387,279.400 171.593 C 278.300 171.799,276.140 172.147,274.600 172.365 C 266.303 173.543,260.818 175.393,256.808 178.367 C 256.042 178.935,255.052 179.670,254.608 180.000 C 248.869 184.262,241.342 194.621,242.255 197.000 C 242.644 198.012,243.929 197.688,248.555 195.416 C 252.966 193.248,255.678 192.138,257.600 191.714 C 258.150 191.592,258.780 191.353,259.000 191.183 C 260.075 190.352,272.182 187.587,277.400 186.981 C 279.231 186.769,284.204 185.947,290.637 184.795 C 293.077 184.358,295.705 184.000,296.477 184.000 C 297.249 184.000,298.402 183.821,299.040 183.602 C 299.678 183.384,301.550 183.038,303.200 182.833 C 306.620 182.410,311.652 181.617,318.600 180.408 C 324.151 179.442,330.276 178.487,334.000 178.007 C 335.430 177.822,337.229 177.475,337.997 177.236 C 338.766 176.996,340.149 176.800,341.071 176.800 C 341.993 176.800,343.231 176.616,343.822 176.392 C 344.412 176.167,346.179 175.809,347.748 175.597 C 350.860 175.174,355.504 174.180,357.400 173.530 C 358.060 173.304,359.050 173.020,359.600 172.900 C 360.150 172.779,360.690 172.572,360.800 172.440 C 360.910 172.308,361.847 171.786,362.882 171.281 C 366.835 169.351,373.438 163.688,375.759 160.237 C 377.510 157.633,374.852 156.300,370.600 157.650 M368.000 189.837 C 366.350 190.147,363.730 190.572,362.178 190.781 C 360.626 190.990,358.859 191.349,358.252 191.580 C 357.645 191.811,356.430 192.000,355.553 192.000 C 354.676 192.000,352.752 192.250,351.279 192.555 C 349.806 192.860,346.800 193.416,344.600 193.791 C 342.400 194.165,339.250 194.735,337.600 195.058 C 335.950 195.381,333.347 195.815,331.817 196.022 C 330.286 196.229,328.737 196.493,328.375 196.608 C 328.013 196.723,326.565 196.989,325.158 197.199 C 320.809 197.847,313.866 199.047,305.400 200.612 C 302.320 201.182,298.720 201.802,297.400 201.990 C 291.671 202.806,288.920 203.273,287.768 203.626 C 287.091 203.833,285.201 204.178,283.568 204.392 C 281.936 204.606,279.970 204.961,279.200 205.180 C 278.430 205.399,276.630 205.760,275.200 205.981 C 273.770 206.203,270.980 206.668,269.000 207.015 C 267.020 207.362,264.379 207.794,263.130 207.976 C 261.882 208.157,259.992 208.492,258.930 208.719 C 257.869 208.947,254.930 209.518,252.400 209.990 C 249.870 210.461,246.768 211.106,245.506 211.423 C 244.244 211.741,242.730 212.000,242.141 212.000 C 239.143 212.000,232.400 215.892,232.400 217.622 C 232.400 217.982,231.161 220.729,227.946 227.496 C 226.876 229.748,226.000 231.687,226.000 231.804 C 226.000 232.164,213.759 256.741,211.358 261.200 C 210.115 263.510,207.365 268.535,205.249 272.367 C 203.132 276.199,200.800 280.429,200.067 281.767 C 198.573 284.492,195.316 290.039,192.123 295.296 C 188.169 301.806,188.546 301.976,202.200 299.835 C 204.180 299.525,208.230 298.890,211.200 298.425 C 218.972 297.207,224.484 296.439,228.600 296.003 C 230.580 295.793,232.829 295.436,233.597 295.211 C 234.366 294.985,236.091 294.800,237.431 294.800 C 238.770 294.800,239.995 294.672,240.152 294.515 C 240.406 294.260,247.574 293.086,255.400 292.016 C 260.789 291.280,264.212 290.737,265.600 290.399 C 266.370 290.211,267.990 289.878,269.200 289.658 C 272.143 289.123,275.562 288.288,279.200 287.216 C 280.850 286.730,282.740 286.180,283.400 285.993 C 292.958 283.293,299.602 278.229,311.197 264.807 C 312.364 263.456,318.359 256.932,319.617 255.642 C 320.177 255.069,320.897 254.221,321.217 253.758 C 321.538 253.295,323.714 250.865,326.053 248.358 C 328.392 245.851,330.912 243.076,331.653 242.191 C 333.666 239.787,335.633 237.596,337.200 236.013 C 337.970 235.236,339.215 233.880,339.966 233.000 C 342.303 230.264,346.477 225.570,349.400 222.392 C 350.940 220.718,354.128 217.181,356.485 214.532 C 358.842 211.884,361.272 209.167,361.885 208.495 C 362.498 207.824,364.080 206.043,365.400 204.539 C 366.720 203.035,368.790 200.730,370.000 199.416 C 371.210 198.103,372.417 196.792,372.681 196.504 C 372.946 196.216,373.846 195.130,374.681 194.090 C 375.517 193.051,376.335 192.140,376.500 192.067 C 377.075 191.811,376.806 189.688,376.167 189.443 C 375.129 189.044,371.204 189.234,368.000 189.837 " stroke="none" fill="#d4063c" fill-rule="evenodd"></path><path id="path1" d="M94.063 62.925 C 93.567 63.522,93.363 77.477,93.822 79.408 C 94.299 81.417,95.059 82.212,128.113 115.316 C 159.231 146.480,162.312 149.721,165.269 154.400 C 166.620 156.538,169.814 162.586,170.444 164.200 C 170.616 164.640,171.102 165.810,171.525 166.800 C 172.857 169.916,175.437 178.066,176.299 181.881 C 177.143 185.617,174.752 183.551,149.586 158.800 C 147.237 156.490,141.464 150.912,136.758 146.404 C 125.648 135.764,118.974 129.321,115.206 125.600 C 113.536 123.950,108.756 119.362,104.584 115.405 C 93.535 104.922,89.754 101.316,86.756 98.400 C 69.869 81.977,66.535 79.295,64.588 80.571 C 63.131 81.525,63.161 80.133,63.284 142.400 C 63.407 204.742,63.390 204.169,65.236 207.695 C 65.436 208.077,65.600 208.623,65.600 208.909 C 65.600 209.951,69.594 217.480,71.697 220.400 C 74.802 224.712,76.998 227.017,100.784 250.926 L 122.200 272.453 119.782 274.726 C 117.158 277.194,114.680 279.372,112.255 281.344 C 111.405 282.035,109.065 283.961,107.055 285.625 C 105.045 287.289,102.410 289.395,101.200 290.305 C 99.990 291.215,97.740 292.951,96.200 294.163 C 94.660 295.375,92.410 297.074,91.200 297.939 C 89.990 298.804,88.612 299.846,88.139 300.256 C 87.665 300.665,85.187 302.530,82.632 304.400 C 80.077 306.270,75.964 309.298,73.493 311.129 C 68.295 314.981,68.823 314.598,62.600 319.023 C 55.294 324.217,53.415 323.766,83.325 324.000 L 108.851 324.200 109.386 325.200 C 109.681 325.750,110.152 327.010,110.433 328.000 C 110.714 328.990,111.071 329.980,111.226 330.200 C 111.381 330.420,111.629 331.230,111.777 332.000 C 111.925 332.770,112.189 333.760,112.363 334.200 C 113.072 335.990,113.697 337.877,114.019 339.200 C 114.973 343.127,118.169 352.441,118.554 352.416 C 118.689 352.407,119.030 352.400,119.311 352.400 C 121.427 352.400,143.697 326.779,157.036 309.000 C 158.686 306.800,160.277 304.708,160.570 304.352 C 163.093 301.286,177.252 280.951,181.229 274.683 C 186.002 267.158,194.000 254.337,194.000 254.209 C 194.000 254.131,195.170 252.084,196.600 249.660 C 198.030 247.236,199.200 245.157,199.200 245.041 C 199.200 244.924,200.010 243.494,201.000 241.864 C 201.990 240.233,202.800 238.806,202.800 238.693 C 202.800 238.580,204.420 235.558,206.400 231.978 C 208.380 228.397,210.000 225.358,210.000 225.223 C 210.000 225.088,210.745 223.543,211.656 221.789 C 213.971 217.331,215.614 214.011,219.270 206.400 C 223.339 197.930,226.797 191.160,228.056 189.200 C 228.410 188.650,229.812 186.400,231.173 184.200 C 232.534 182.000,234.440 179.120,235.408 177.800 C 236.377 176.480,237.479 174.950,237.858 174.400 C 239.470 172.062,242.807 168.334,246.661 164.568 C 251.443 159.894,251.440 160.004,246.800 158.107 C 245.150 157.432,242.180 156.219,240.200 155.411 C 238.220 154.602,236.060 153.702,235.400 153.410 C 234.740 153.118,233.347 152.594,232.305 152.246 C 231.262 151.898,230.092 151.446,229.705 151.242 C 219.179 145.712,212.059 146.735,201.020 155.365 C 197.739 157.929,191.297 164.872,188.600 168.748 C 185.296 173.498,185.197 173.543,185.208 170.300 C 185.225 165.440,182.729 153.370,180.976 149.839 C 180.659 149.200,180.400 148.525,180.400 148.340 C 180.400 147.307,174.773 137.075,173.614 136.000 C 173.495 135.890,172.362 134.519,171.097 132.952 C 169.831 131.386,167.851 129.237,166.697 128.176 C 165.544 127.115,161.005 122.816,156.612 118.623 C 147.666 110.086,143.596 106.240,139.206 102.173 C 137.559 100.648,135.579 98.769,134.806 97.998 C 133.536 96.732,128.283 91.843,120.011 84.229 C 118.355 82.705,116.351 80.815,115.558 80.029 C 112.271 76.772,98.772 64.289,97.446 63.279 C 96.148 62.290,94.714 62.140,94.063 62.925 M97.279 63.900 C 97.767 64.285,99.884 66.252,101.983 68.272 C 105.871 72.012,106.603 72.697,110.428 76.175 C 111.623 77.261,114.041 79.511,115.803 81.175 C 117.565 82.839,121.053 86.090,123.556 88.400 C 126.058 90.710,128.757 93.240,129.553 94.022 C 130.349 94.805,132.625 96.965,134.611 98.822 C 147.507 110.884,164.816 127.252,167.182 129.621 C 168.182 130.623,169.385 131.906,169.855 132.472 C 171.784 134.797,174.688 138.639,174.938 139.200 C 175.086 139.530,175.589 140.430,176.055 141.200 C 177.531 143.636,180.000 148.703,180.000 149.296 C 180.000 149.610,180.132 149.999,180.293 150.160 C 181.528 151.394,184.343 164.976,184.897 172.369 C 185.058 174.513,185.746 174.248,187.635 171.315 C 188.596 169.822,189.477 168.510,189.592 168.400 C 189.707 168.290,190.837 166.919,192.102 165.354 C 195.102 161.643,200.331 156.654,203.600 154.385 C 207.392 151.752,210.334 150.000,210.962 150.000 C 211.265 150.000,212.297 149.644,213.256 149.209 C 215.698 148.101,220.610 148.096,222.894 149.200 C 223.805 149.640,224.789 150.000,225.081 150.000 C 225.372 150.000,225.923 150.166,226.305 150.368 C 228.737 151.656,230.526 152.400,231.189 152.400 C 231.609 152.400,232.044 152.548,232.155 152.728 C 232.267 152.908,233.673 153.571,235.279 154.201 C 236.886 154.831,238.371 155.493,238.580 155.673 C 238.789 155.853,239.269 156.000,239.648 156.000 C 240.026 156.000,240.845 156.258,241.468 156.573 C 242.090 156.888,244.175 157.817,246.100 158.636 C 250.299 160.424,250.243 159.984,246.702 163.400 C 242.026 167.912,238.005 172.704,234.117 178.400 C 233.292 179.610,232.477 180.660,232.308 180.733 C 232.139 180.807,232.000 181.019,232.000 181.205 C 232.000 181.391,231.310 182.591,230.467 183.872 C 229.624 185.152,228.409 187.190,227.767 188.400 C 227.125 189.610,226.510 190.690,226.400 190.800 C 225.896 191.305,221.717 199.563,218.810 205.800 C 217.682 208.220,216.617 210.470,216.444 210.800 C 216.270 211.130,215.180 213.290,214.021 215.600 C 209.837 223.940,206.453 230.501,204.223 234.600 C 203.505 235.920,202.287 238.179,201.515 239.621 C 200.299 241.894,197.207 247.319,195.716 249.796 C 195.449 250.238,195.098 250.869,194.935 251.198 C 194.773 251.527,193.775 253.189,192.720 254.891 C 191.664 256.593,190.800 258.169,190.800 258.393 C 190.800 258.617,190.620 258.800,190.400 258.800 C 190.180 258.800,190.000 258.975,190.000 259.188 C 190.000 259.402,189.482 260.347,188.848 261.288 C 188.214 262.230,187.179 263.880,186.548 264.956 C 183.269 270.543,166.855 295.037,164.623 297.674 C 164.310 298.044,163.730 298.854,163.336 299.474 C 162.941 300.093,162.521 300.690,162.401 300.800 C 162.281 300.910,160.927 302.709,159.392 304.798 C 157.856 306.886,156.386 308.866,156.124 309.198 C 155.863 309.529,154.462 311.330,153.013 313.200 C 150.284 316.719,145.301 322.970,144.600 323.754 C 144.380 324.000,143.517 325.051,142.681 326.091 C 141.846 327.130,140.946 328.210,140.681 328.490 C 140.417 328.771,139.217 330.170,138.016 331.600 C 136.815 333.030,135.555 334.493,135.216 334.851 C 134.877 335.209,134.276 335.896,133.881 336.378 C 132.364 338.225,122.402 349.076,120.841 350.581 C 118.898 352.453,118.786 352.377,117.611 348.400 C 117.123 346.750,116.565 344.860,116.370 344.200 C 115.641 341.734,113.952 336.572,113.622 335.800 C 113.434 335.360,112.975 333.920,112.602 332.600 C 112.230 331.280,111.684 329.480,111.390 328.600 C 111.096 327.720,110.751 326.510,110.623 325.911 C 110.352 324.643,108.899 323.154,108.013 323.236 C 105.503 323.467,58.800 323.131,58.800 322.882 C 58.800 322.706,60.825 321.137,63.300 319.394 C 66.973 316.808,71.551 313.458,73.800 311.711 C 74.020 311.540,75.820 310.237,77.800 308.815 C 82.618 305.356,96.642 294.764,101.717 290.750 C 106.012 287.354,113.019 281.681,113.762 280.997 C 114.003 280.776,114.830 280.080,115.600 279.451 C 119.041 276.639,122.400 273.188,122.400 272.463 C 122.400 271.965,114.741 263.993,101.300 250.501 C 69.109 218.187,67.068 215.502,64.595 202.200 C 63.589 196.788,63.711 82.846,64.724 81.595 C 65.825 80.234,69.060 82.329,75.600 88.638 C 76.810 89.806,78.976 91.894,80.414 93.280 C 81.852 94.666,86.352 98.943,90.414 102.784 C 97.474 109.459,105.436 117.129,108.955 120.643 C 109.860 121.547,114.650 126.131,119.600 130.829 C 124.550 135.528,129.974 140.728,131.653 142.386 C 133.332 144.044,138.912 149.450,144.053 154.400 C 159.290 169.070,165.142 174.748,169.824 179.400 C 175.754 185.293,175.389 185.030,176.564 184.261 C 177.525 183.631,177.527 183.611,176.944 181.313 C 173.963 169.561,170.423 161.136,164.881 152.600 C 162.505 148.942,159.504 145.821,129.742 116.058 C 111.845 98.160,96.616 82.778,95.901 81.875 L 94.600 80.234 94.472 71.717 L 94.343 63.200 95.367 63.200 C 95.930 63.200,96.790 63.515,97.279 63.900 M367.400 157.411 C 365.860 157.707,362.440 158.245,359.800 158.607 C 357.160 158.969,354.091 159.436,352.979 159.644 C 351.868 159.853,349.168 160.278,346.979 160.588 C 344.791 160.899,341.200 161.436,339.000 161.783 C 336.800 162.130,333.560 162.588,331.800 162.800 C 330.040 163.013,327.700 163.360,326.600 163.572 C 325.500 163.783,321.900 164.339,318.600 164.808 C 315.300 165.276,311.700 165.845,310.600 166.073 C 309.500 166.300,307.430 166.622,306.000 166.788 C 304.570 166.954,302.050 167.307,300.400 167.572 C 298.750 167.838,295.780 168.301,293.800 168.602 C 291.820 168.903,287.950 169.514,285.200 169.960 C 282.450 170.407,279.570 170.866,278.800 170.980 C 276.426 171.334,270.306 172.370,268.200 172.774 C 265.532 173.286,260.861 175.025,259.516 176.008 C 258.920 176.444,258.315 176.800,258.172 176.800 C 256.586 176.800,249.153 183.652,245.751 188.250 C 239.135 197.192,240.236 200.240,248.630 196.221 C 251.253 194.965,253.760 193.795,254.200 193.622 C 254.640 193.449,255.450 193.119,256.000 192.889 C 256.979 192.479,260.411 191.447,264.800 190.243 C 269.945 188.831,273.820 188.110,284.400 186.599 C 286.930 186.238,290.845 185.595,293.099 185.171 C 295.354 184.747,297.645 184.400,298.191 184.400 C 298.737 184.400,300.582 184.143,302.292 183.828 C 305.921 183.160,312.390 182.100,314.400 181.845 C 316.827 181.536,323.625 180.442,328.400 179.591 C 330.930 179.140,334.260 178.600,335.800 178.390 C 337.340 178.181,339.410 177.840,340.400 177.632 C 344.300 176.815,347.121 176.321,349.800 175.986 C 359.300 174.798,366.576 171.077,373.486 163.873 C 379.515 157.588,377.521 155.471,367.400 157.411 M376.143 157.937 C 377.670 159.624,369.105 168.243,362.882 171.281 C 361.847 171.786,360.910 172.308,360.800 172.440 C 360.690 172.572,360.150 172.779,359.600 172.900 C 359.050 173.020,358.060 173.304,357.400 173.530 C 355.504 174.180,350.860 175.174,347.748 175.597 C 346.179 175.809,344.412 176.167,343.822 176.392 C 343.231 176.616,341.993 176.800,341.071 176.800 C 340.149 176.800,338.766 176.996,337.997 177.236 C 337.229 177.475,335.430 177.822,334.000 178.007 C 330.276 178.487,324.151 179.442,318.600 180.408 C 311.652 181.617,306.620 182.410,303.200 182.833 C 301.550 183.038,299.678 183.384,299.040 183.602 C 298.402 183.821,297.249 184.000,296.477 184.000 C 295.705 184.000,293.077 184.358,290.637 184.795 C 284.204 185.947,279.231 186.769,277.400 186.981 C 272.182 187.587,260.075 190.352,259.000 191.183 C 258.780 191.353,258.150 191.592,257.600 191.714 C 255.678 192.138,252.966 193.248,248.555 195.416 C 243.929 197.688,242.644 198.012,242.255 197.000 C 241.342 194.621,248.869 184.262,254.608 180.000 C 255.052 179.670,256.042 178.935,256.808 178.367 C 260.818 175.393,266.303 173.543,274.600 172.365 C 276.140 172.147,278.300 171.799,279.400 171.593 C 280.500 171.387,283.380 170.939,285.800 170.597 C 288.220 170.256,292.270 169.630,294.800 169.205 C 303.038 167.823,304.961 167.522,307.600 167.201 C 310.204 166.884,313.071 166.458,319.800 165.387 C 321.780 165.072,325.920 164.446,329.000 163.996 C 332.080 163.546,335.508 162.998,336.617 162.779 C 337.726 162.559,339.976 162.205,341.617 161.990 C 343.258 161.776,345.230 161.507,346.000 161.391 C 346.770 161.275,349.470 160.896,352.000 160.548 C 354.530 160.200,358.130 159.651,360.000 159.328 C 361.870 159.006,364.750 158.582,366.400 158.386 C 368.050 158.191,369.940 157.859,370.600 157.650 C 372.711 156.980,375.403 157.119,376.143 157.937 M370.400 188.658 C 368.229 188.983,361.631 190.117,358.600 190.686 C 355.084 191.347,349.426 192.290,346.000 192.785 C 344.790 192.960,342.810 193.297,341.600 193.534 C 338.730 194.096,332.682 195.117,330.400 195.424 C 329.410 195.558,327.712 195.922,326.627 196.234 C 325.542 196.545,323.979 196.800,323.153 196.800 C 322.328 196.800,321.195 196.974,320.636 197.186 C 320.077 197.399,318.221 197.762,316.510 197.994 C 314.800 198.226,311.960 198.671,310.200 198.984 C 308.440 199.296,304.750 199.943,302.000 200.421 C 299.250 200.899,295.650 201.548,294.000 201.863 C 292.350 202.178,289.900 202.582,288.555 202.760 C 287.209 202.939,285.936 203.192,285.725 203.323 C 285.514 203.453,284.004 203.739,282.370 203.957 C 280.737 204.175,277.330 204.734,274.800 205.198 C 272.270 205.663,268.760 206.307,267.000 206.630 C 265.240 206.953,262.270 207.482,260.400 207.805 C 258.530 208.128,255.560 208.671,253.800 209.011 C 252.040 209.351,249.520 209.798,248.200 210.004 C 246.880 210.211,244.756 210.654,243.480 210.990 C 242.205 211.325,240.765 211.601,240.280 211.602 C 239.796 211.604,238.884 211.874,238.254 212.202 C 237.624 212.531,236.871 212.800,236.581 212.800 C 235.799 212.800,232.302 216.406,231.529 218.009 C 229.996 221.189,228.000 225.592,228.000 225.796 C 228.000 225.916,226.948 228.216,225.663 230.907 C 224.378 233.598,223.013 236.520,222.630 237.400 C 222.247 238.280,221.767 239.270,221.564 239.600 C 221.361 239.930,221.093 240.470,220.969 240.800 C 220.844 241.130,220.593 241.670,220.410 242.000 C 220.227 242.330,217.882 246.920,215.199 252.200 C 212.516 257.480,209.991 262.369,209.588 263.065 C 209.185 263.761,208.102 265.741,207.181 267.465 C 204.861 271.809,198.001 283.972,195.716 287.791 C 195.449 288.236,195.104 288.870,194.948 289.200 C 194.792 289.530,194.099 290.700,193.408 291.800 C 192.717 292.900,192.025 294.070,191.870 294.400 C 191.716 294.730,191.058 295.900,190.408 297.000 C 188.000 301.075,189.622 302.890,194.712 301.817 C 199.899 300.724,204.212 299.996,205.494 299.998 C 206.206 299.999,207.556 299.823,208.494 299.606 C 209.432 299.389,212.990 298.840,216.400 298.386 C 219.810 297.932,223.680 297.378,225.000 297.156 C 226.320 296.933,229.290 296.502,231.600 296.196 C 233.910 295.891,237.780 295.356,240.200 295.007 C 242.620 294.658,245.860 294.221,247.400 294.038 C 248.940 293.854,251.280 293.508,252.600 293.270 C 253.920 293.032,257.340 292.458,260.200 291.995 C 263.060 291.532,265.940 291.001,266.600 290.813 C 267.260 290.626,268.700 290.350,269.800 290.200 C 280.840 288.691,294.325 283.002,300.542 277.231 C 302.050 275.831,309.247 268.120,311.975 264.982 C 312.731 264.112,314.910 261.690,316.817 259.600 C 318.724 257.510,321.075 254.909,322.042 253.820 C 324.387 251.178,327.434 247.804,331.828 242.981 C 333.824 240.792,336.163 238.190,337.026 237.200 C 337.889 236.210,340.243 233.578,342.255 231.352 C 344.268 229.125,346.339 226.801,346.858 226.187 C 347.376 225.572,349.083 223.704,350.651 222.035 C 352.220 220.366,354.813 217.470,356.414 215.600 C 358.014 213.730,360.262 211.210,361.409 210.000 C 362.556 208.790,365.721 205.280,368.442 202.200 C 371.164 199.120,373.680 196.330,374.034 196.000 C 379.658 190.762,378.050 187.515,370.400 188.658 M376.167 189.443 C 376.806 189.688,377.075 191.811,376.500 192.067 C 376.335 192.140,375.517 193.051,374.681 194.090 C 373.846 195.130,372.946 196.216,372.681 196.504 C 372.417 196.792,371.210 198.103,370.000 199.416 C 368.790 200.730,366.720 203.035,365.400 204.539 C 364.080 206.043,362.498 207.824,361.885 208.495 C 361.272 209.167,358.842 211.884,356.485 214.532 C 354.128 217.181,350.940 220.718,349.400 222.392 C 346.477 225.570,342.303 230.264,339.966 233.000 C 339.215 233.880,337.970 235.236,337.200 236.013 C 335.633 237.596,333.666 239.787,331.653 242.191 C 330.912 243.076,328.392 245.851,326.053 248.358 C 323.714 250.865,321.538 253.295,321.217 253.758 C 320.897 254.221,320.177 255.069,319.617 255.642 C 318.359 256.932,312.364 263.456,311.197 264.807 C 299.602 278.229,292.958 283.293,283.400 285.993 C 282.740 286.180,280.850 286.730,279.200 287.216 C 275.562 288.288,272.143 289.123,269.200 289.658 C 267.990 289.878,266.370 290.211,265.600 290.399 C 264.212 290.737,260.789 291.280,255.400 292.016 C 247.574 293.086,240.406 294.260,240.152 294.515 C 239.995 294.672,238.770 294.800,237.431 294.800 C 236.091 294.800,234.366 294.985,233.597 295.211 C 232.829 295.436,230.580 295.793,228.600 296.003 C 224.484 296.439,218.972 297.207,211.200 298.425 C 208.230 298.890,204.180 299.525,202.200 299.835 C 188.546 301.976,188.169 301.806,192.123 295.296 C 195.316 290.039,198.573 284.492,200.067 281.767 C 200.800 280.429,203.132 276.199,205.249 272.367 C 207.365 268.535,210.115 263.510,211.358 261.200 C 213.759 256.741,226.000 232.164,226.000 231.804 C 226.000 231.687,226.876 229.748,227.946 227.496 C 231.161 220.729,232.400 217.982,232.400 217.622 C 232.400 215.892,239.143 212.000,242.141 212.000 C 242.730 212.000,244.244 211.741,245.506 211.423 C 246.768 211.106,249.870 210.461,252.400 209.990 C 254.930 209.518,257.869 208.947,258.930 208.719 C 259.992 208.492,261.882 208.157,263.130 207.976 C 264.379 207.794,267.020 207.362,269.000 207.015 C 270.980 206.668,273.770 206.203,275.200 205.981 C 276.630 205.760,278.430 205.399,279.200 205.180 C 279.970 204.961,281.936 204.606,283.568 204.392 C 285.201 204.178,287.091 203.833,287.768 203.626 C 288.920 203.273,291.671 202.806,297.400 201.990 C 298.720 201.802,302.320 201.182,305.400 200.612 C 313.866 199.047,320.809 197.847,325.158 197.199 C 326.565 196.989,328.013 196.723,328.375 196.608 C 328.737 196.493,330.286 196.229,331.817 196.022 C 333.347 195.815,335.950 195.381,337.600 195.058 C 339.250 194.735,342.400 194.165,344.600 193.791 C 346.800 193.416,349.806 192.860,351.279 192.555 C 352.752 192.250,354.676 192.000,355.553 192.000 C 356.430 192.000,357.645 191.811,358.252 191.580 C 358.859 191.349,360.626 190.990,362.178 190.781 C 363.730 190.572,366.350 190.147,368.000 189.837 C 371.204 189.234,375.129 189.044,376.167 189.443 " stroke="none" fill="#f399b0" fill-rule="evenodd"></path><path id="path2" d="M93.423 62.889 C 92.918 63.610,92.800 65.080,92.800 70.673 C 92.800 81.919,88.769 76.707,126.835 114.673 C 160.439 148.188,163.293 151.268,166.711 157.695 C 167.444 159.073,168.213 160.371,168.421 160.580 C 170.228 162.394,165.140 153.814,162.044 149.825 C 161.030 148.519,145.761 132.990,128.113 115.316 C 110.465 97.641,95.595 82.600,95.069 81.890 C 93.620 79.937,93.382 78.051,93.600 70.243 C 93.884 60.067,94.137 60.022,103.266 68.487 C 111.150 75.798,113.778 78.266,115.558 80.029 C 116.351 80.815,118.355 82.705,120.011 84.229 C 128.283 91.843,133.536 96.732,134.806 97.998 C 135.579 98.769,137.559 100.645,139.206 102.167 C 140.853 103.689,143.595 106.276,145.300 107.916 C 147.005 109.557,148.400 110.740,148.400 110.545 C 148.400 110.223,143.269 105.283,135.608 98.230 C 132.547 95.413,129.973 92.987,125.963 89.144 C 124.732 87.965,122.572 85.929,121.163 84.619 C 116.764 80.532,112.340 76.397,108.600 72.879 C 101.101 65.824,100.153 64.950,98.428 63.495 C 96.307 61.706,94.412 61.476,93.423 62.889 M64.526 80.002 C 64.046 80.196,63.461 80.713,63.226 81.151 C 62.485 82.535,62.653 199.618,63.400 202.400 C 63.725 203.610,63.993 205.011,63.995 205.513 C 64.001 206.691,65.130 209.403,65.473 209.061 C 65.617 208.917,65.544 208.394,65.310 207.899 C 63.365 203.779,63.408 205.164,63.284 142.400 C 63.220 110.170,63.274 83.214,63.403 82.497 C 63.705 80.817,65.198 79.757,66.373 80.386 C 66.925 80.681,67.200 80.690,67.200 80.414 C 67.200 80.186,67.035 80.000,66.833 80.000 C 66.631 80.000,66.226 79.921,65.933 79.825 C 65.640 79.729,65.007 79.809,64.526 80.002 M69.648 82.485 C 71.754 84.134,74.630 86.769,80.907 92.800 C 84.711 96.454,84.400 96.177,84.400 95.920 C 84.400 95.724,81.062 92.379,75.285 86.787 C 74.028 85.571,72.293 84.041,71.428 83.387 C 70.564 82.734,69.529 81.885,69.128 81.500 C 68.728 81.115,68.196 80.800,67.948 80.800 C 67.699 80.800,68.464 81.558,69.648 82.485 M84.800 96.141 C 84.800 96.582,86.927 98.653,104.584 115.405 C 108.756 119.362,113.536 123.950,115.206 125.600 C 118.974 129.321,125.648 135.764,136.758 146.404 C 141.464 150.912,147.237 156.490,149.586 158.800 C 173.323 182.145,177.703 186.026,176.377 182.540 C 176.170 181.994,176.000 181.130,176.000 180.620 C 176.000 180.109,175.721 179.086,175.381 178.346 C 174.764 177.004,174.763 177.004,175.009 178.200 C 175.426 180.233,175.851 183.600,175.689 183.600 C 175.605 183.600,173.156 181.215,170.247 178.300 C 164.373 172.413,158.646 166.850,145.023 153.794 C 139.975 148.957,134.204 143.380,132.198 141.400 C 130.192 139.420,124.879 134.290,120.391 130.000 C 115.902 125.710,109.825 119.860,106.886 117.000 C 100.951 111.226,99.100 109.447,93.580 104.218 C 91.501 102.248,88.675 99.553,87.300 98.230 C 85.925 96.906,84.800 95.966,84.800 96.141 M154.600 116.596 C 157.900 119.837,162.454 124.215,164.720 126.325 C 166.986 128.434,169.866 131.429,171.119 132.980 C 172.373 134.531,173.497 135.890,173.617 136.000 C 174.194 136.527,177.541 142.130,178.874 144.800 C 179.698 146.450,180.378 147.560,180.386 147.267 C 180.413 146.265,176.454 139.212,174.125 136.112 C 170.142 130.811,169.471 130.103,159.577 120.778 C 150.241 111.979,147.871 109.987,154.600 116.596 M214.410 147.631 C 213.206 147.845,212.045 148.195,211.830 148.410 C 211.616 148.624,211.054 148.800,210.583 148.800 C 210.111 148.800,208.444 149.700,206.878 150.800 C 205.311 151.900,203.888 152.802,203.715 152.804 C 202.678 152.815,191.709 163.281,190.302 165.600 C 189.835 166.370,188.991 167.548,188.427 168.219 C 187.862 168.889,187.040 169.930,186.600 170.532 L 185.800 171.626 185.565 169.513 L 185.330 167.400 185.265 170.100 C 185.181 173.569,185.272 173.532,188.600 168.748 C 191.297 164.872,197.739 157.929,201.020 155.365 C 212.058 146.736,219.157 145.714,229.695 151.236 C 230.866 151.850,233.759 152.775,233.940 152.593 C 234.155 152.378,232.145 151.600,231.374 151.600 C 231.058 151.600,230.800 151.454,230.800 151.275 C 230.800 151.096,229.495 150.452,227.900 149.844 C 226.305 149.236,224.431 148.481,223.735 148.167 C 222.085 147.422,217.183 147.140,214.410 147.631 M180.401 148.239 C 180.401 148.480,180.659 149.200,180.976 149.839 C 181.765 151.430,183.604 157.760,183.987 160.200 L 184.300 162.200 184.350 160.514 C 184.378 159.587,184.155 158.057,183.856 157.114 C 182.656 153.334,182.000 151.091,182.000 150.764 C 182.000 150.574,181.641 149.830,181.201 149.110 C 180.762 148.389,180.402 147.997,180.401 148.239 M235.400 153.381 C 238.697 154.928,243.650 156.883,243.826 156.708 C 243.935 156.598,243.074 156.115,241.912 155.633 C 240.750 155.151,239.350 154.570,238.800 154.342 C 238.250 154.113,237.290 153.673,236.668 153.363 C 236.045 153.053,235.235 152.804,234.868 152.809 C 234.486 152.814,234.714 153.059,235.400 153.381 M372.700 156.682 C 373.195 156.778,374.005 156.778,374.500 156.682 C 374.995 156.587,374.590 156.509,373.600 156.509 C 372.610 156.509,372.205 156.587,372.700 156.682 M244.400 156.940 C 244.400 157.017,245.615 157.584,247.100 158.200 C 251.406 159.986,251.410 159.926,246.661 164.568 C 242.807 168.334,239.470 172.062,237.858 174.400 C 237.479 174.950,236.377 176.480,235.408 177.800 C 234.440 179.120,232.534 182.000,231.173 184.200 C 229.812 186.400,228.410 188.650,228.056 189.200 C 226.797 191.160,223.339 197.930,219.270 206.400 C 215.614 214.011,213.971 217.331,211.656 221.789 C 210.745 223.543,210.000 225.088,210.000 225.223 C 210.000 225.358,208.380 228.397,206.400 231.978 C 204.420 235.558,202.800 238.580,202.800 238.693 C 202.800 238.806,201.990 240.233,201.000 241.864 C 199.077 245.032,198.849 245.590,199.800 244.800 C 200.130 244.526,200.400 244.113,200.400 243.883 C 200.400 243.652,200.651 243.179,200.958 242.831 C 201.265 242.484,202.591 240.130,203.906 237.600 C 205.220 235.070,206.905 231.920,207.650 230.600 C 208.395 229.280,209.345 227.480,209.761 226.600 C 210.177 225.720,210.659 224.730,210.833 224.400 C 211.006 224.070,212.344 221.370,213.806 218.400 C 215.269 215.430,216.730 212.550,217.054 212.000 C 217.378 211.450,218.277 209.650,219.052 208.000 C 221.433 202.929,226.805 192.289,227.838 190.600 C 228.377 189.720,228.937 188.737,229.083 188.417 C 229.946 186.527,233.167 181.684,237.684 175.484 C 241.665 170.020,242.574 168.998,248.353 163.484 C 251.273 160.698,251.398 160.515,250.894 159.759 C 250.427 159.058,244.400 156.442,244.400 156.940 M366.600 157.170 C 366.160 157.345,364.292 157.618,362.448 157.777 C 360.605 157.935,358.715 158.234,358.248 158.441 C 357.350 158.841,357.755 158.810,364.200 157.986 C 365.960 157.761,368.030 157.421,368.800 157.230 L 370.200 156.882 368.800 156.866 C 368.030 156.858,367.040 156.994,366.600 157.170 M376.855 157.540 C 378.710 160.510,367.890 170.417,359.200 173.705 C 356.450 174.745,351.242 175.999,349.636 176.008 C 348.846 176.012,347.300 176.279,346.200 176.600 C 344.329 177.147,344.303 177.171,345.800 176.978 C 346.680 176.864,348.660 176.628,350.200 176.453 C 351.740 176.279,353.630 175.941,354.400 175.704 C 359.225 174.213,360.542 173.699,363.583 172.122 C 371.036 168.258,378.925 160.077,377.595 157.591 C 377.362 157.156,376.997 156.800,376.783 156.800 C 376.556 156.800,376.587 157.110,376.855 157.540 M351.000 159.409 C 349.900 159.692,348.226 159.940,347.279 159.962 C 345.243 160.007,339.844 161.178,340.170 161.503 C 340.294 161.627,341.342 161.531,342.498 161.288 C 343.654 161.046,347.210 160.466,350.400 160.000 C 357.692 158.934,357.873 158.893,355.200 158.894 C 353.990 158.895,352.100 159.126,351.000 159.409 M168.813 161.305 C 168.806 161.473,168.961 161.923,169.157 162.305 C 169.353 162.687,169.720 163.518,169.972 164.152 C 170.224 164.785,170.546 165.187,170.688 165.045 C 170.830 164.903,170.734 164.574,170.473 164.313 C 170.213 164.053,170.000 163.550,170.000 163.196 C 170.000 162.563,168.837 160.711,168.813 161.305 M334.107 161.976 C 333.177 162.128,332.277 162.398,332.107 162.577 C 331.938 162.756,332.700 162.760,333.800 162.585 C 334.900 162.410,336.610 162.141,337.600 161.987 L 339.400 161.707 337.600 161.704 C 336.610 161.702,335.038 161.824,334.107 161.976 M184.635 164.200 C 184.782 165.300,184.969 166.275,185.051 166.367 C 185.410 166.768,185.146 163.339,184.777 162.800 C 184.486 162.374,184.445 162.780,184.635 164.200 M326.693 163.041 C 326.561 163.173,325.496 163.420,324.326 163.591 C 322.383 163.874,322.338 163.902,323.800 163.924 C 324.680 163.938,326.480 163.705,327.800 163.408 C 330.109 162.887,330.138 162.866,328.567 162.834 C 327.668 162.815,326.825 162.908,326.693 163.041 M317.800 164.367 C 317.360 164.540,315.740 164.804,314.200 164.953 C 310.078 165.352,303.739 166.717,305.800 166.761 C 306.680 166.780,308.030 166.624,308.800 166.413 C 309.570 166.203,312.810 165.648,316.000 165.181 C 319.190 164.713,321.875 164.256,321.967 164.165 C 322.268 163.867,318.619 164.043,317.800 164.367 M170.932 166.200 C 171.045 166.640,171.501 167.990,171.945 169.200 C 172.389 170.410,173.046 172.435,173.405 173.700 C 173.763 174.965,174.243 176.000,174.471 176.000 C 174.706 176.000,174.764 175.696,174.606 175.300 C 174.453 174.915,173.785 173.010,173.123 171.067 C 171.997 167.766,170.452 164.333,170.932 166.200 M300.636 167.098 C 300.472 167.262,299.317 167.505,298.069 167.639 L 295.800 167.882 297.800 167.903 C 300.333 167.929,304.680 166.924,302.367 166.848 C 301.578 166.821,300.799 166.934,300.636 167.098 M292.400 168.400 C 291.646 168.887,293.278 168.887,294.800 168.400 C 295.716 168.107,295.683 168.077,294.400 168.046 C 293.630 168.027,292.730 168.187,292.400 168.400 M285.400 169.409 C 284.300 169.692,282.590 169.950,281.600 169.983 C 279.638 170.049,273.638 171.507,275.094 171.565 C 275.586 171.584,276.756 171.429,277.694 171.220 C 279.104 170.907,286.866 169.623,290.800 169.054 C 291.350 168.974,290.810 168.906,289.600 168.902 C 288.390 168.898,286.500 169.126,285.400 169.409 M269.000 172.222 L 267.800 172.808 269.200 172.555 C 269.970 172.416,271.320 172.167,272.200 172.001 L 273.800 171.700 272.000 171.668 C 271.010 171.650,269.660 171.900,269.000 172.222 M262.800 173.938 C 258.172 175.828,254.379 178.407,250.365 182.392 C 246.818 185.913,242.464 191.397,242.883 191.816 C 242.982 191.915,244.063 190.602,245.285 188.898 C 248.920 183.831,256.488 176.800,258.307 176.800 C 258.524 176.800,258.911 176.548,259.167 176.240 C 259.422 175.932,260.569 175.319,261.716 174.879 C 262.862 174.438,264.520 173.799,265.400 173.459 C 266.280 173.119,266.640 172.849,266.200 172.859 C 265.760 172.868,264.230 173.354,262.800 173.938 M340.164 177.589 C 339.704 177.775,337.904 178.114,336.164 178.343 C 334.424 178.572,330.480 179.206,327.400 179.751 C 324.320 180.296,321.260 180.831,320.600 180.939 C 319.940 181.047,320.480 181.073,321.800 180.996 C 324.394 180.846,332.225 179.729,333.196 179.371 C 333.523 179.251,335.413 178.890,337.396 178.570 C 339.378 178.250,341.720 177.832,342.600 177.640 L 344.200 177.292 342.600 177.271 C 341.720 177.260,340.624 177.403,340.164 177.589 M316.673 181.460 C 316.530 181.603,315.285 181.849,313.906 182.006 L 311.400 182.291 313.600 182.315 C 315.898 182.340,320.026 181.326,317.967 181.242 C 317.398 181.219,316.816 181.317,316.673 181.460 M309.130 182.603 C 309.019 182.715,307.684 182.976,306.164 183.184 C 302.690 183.658,299.063 184.225,293.200 185.208 C 284.019 186.748,281.834 187.158,283.600 187.011 C 287.589 186.676,292.862 186.009,293.209 185.794 C 293.533 185.594,297.189 185.007,306.944 183.589 C 309.795 183.175,311.817 182.436,310.167 182.412 C 309.708 182.405,309.242 182.491,309.130 182.603 M276.200 187.808 L 273.800 188.313 275.800 188.326 C 276.900 188.333,278.430 188.097,279.200 187.800 C 281.054 187.086,279.611 187.090,276.200 187.808 M371.280 187.983 C 368.958 188.553,369.451 188.735,372.716 188.511 C 378.468 188.116,379.036 191.341,374.034 196.000 C 373.680 196.330,371.164 199.120,368.442 202.200 C 365.721 205.280,362.556 208.790,361.409 210.000 C 360.262 211.210,358.014 213.730,356.414 215.600 C 354.813 217.470,352.220 220.366,350.651 222.035 C 349.083 223.704,347.376 225.572,346.858 226.187 C 346.339 226.801,344.268 229.125,342.255 231.352 C 340.243 233.578,337.889 236.210,337.026 237.200 C 336.163 238.190,333.824 240.792,331.828 242.981 C 327.434 247.804,324.387 251.178,322.042 253.820 C 321.075 254.909,318.724 257.510,316.817 259.600 C 314.910 261.690,312.731 264.112,311.975 264.982 C 302.057 276.393,298.103 279.913,291.297 283.390 C 289.374 284.372,288.014 285.181,288.276 285.188 C 290.846 285.254,300.501 278.391,305.141 273.200 C 307.010 271.110,309.521 268.320,310.722 267.000 C 312.722 264.802,315.502 261.725,317.771 259.200 C 320.748 255.886,334.643 240.527,334.986 240.170 C 335.214 239.934,336.300 238.676,337.400 237.375 C 338.500 236.074,339.852 234.557,340.404 234.005 C 340.956 233.452,343.386 230.753,345.804 228.007 C 348.222 225.261,351.100 222.100,352.200 220.983 C 354.640 218.504,359.200 213.335,359.200 213.048 C 359.200 212.933,359.797 212.245,360.526 211.519 C 361.256 210.794,362.992 208.940,364.384 207.400 C 365.776 205.860,367.491 203.970,368.194 203.200 C 377.816 192.659,379.229 190.410,377.300 188.705 C 376.443 187.947,373.072 187.543,371.280 187.983 M267.800 189.477 C 265.820 190.014,263.570 190.613,262.800 190.807 L 261.400 191.160 263.000 191.011 C 264.876 190.836,270.956 189.443,272.400 188.857 L 273.400 188.451 272.400 188.475 C 271.850 188.488,269.780 188.939,267.800 189.477 M363.800 189.223 C 362.652 189.549,358.681 190.234,351.102 191.414 C 349.178 191.713,347.288 192.158,346.902 192.403 C 346.325 192.769,346.414 192.807,347.400 192.614 C 348.060 192.485,350.130 192.133,352.000 191.831 C 355.549 191.259,360.634 190.342,365.400 189.415 C 367.616 188.984,367.866 188.872,366.600 188.876 C 365.720 188.879,364.460 189.035,363.800 189.223 M259.200 191.861 L 257.800 192.426 259.188 192.206 C 259.951 192.084,260.752 191.808,260.968 191.593 C 261.486 191.074,260.944 191.157,259.200 191.861 M242.094 192.890 C 240.854 194.397,241.167 198.400,242.525 198.400 C 242.761 198.400,242.621 198.157,242.216 197.861 C 241.411 197.273,241.575 194.394,242.475 193.310 C 242.716 193.019,242.824 192.691,242.714 192.581 C 242.604 192.471,242.325 192.610,242.094 192.890 M256.200 192.800 C 256.064 193.020,256.223 193.200,256.553 193.200 C 256.883 193.200,257.264 193.020,257.400 192.800 C 257.536 192.580,257.377 192.400,257.047 192.400 C 256.717 192.400,256.336 192.580,256.200 192.800 M341.893 193.041 C 341.761 193.173,340.696 193.420,339.526 193.591 L 337.400 193.900 339.200 193.919 C 341.228 193.941,345.001 192.916,343.167 192.842 C 342.598 192.819,342.025 192.908,341.893 193.041 M254.000 193.603 C 253.670 193.799,251.870 194.683,250.000 195.568 C 248.130 196.453,246.795 197.182,247.034 197.188 C 247.273 197.195,248.713 196.609,250.234 195.887 C 251.755 195.165,253.630 194.276,254.400 193.913 C 255.170 193.549,255.530 193.250,255.200 193.249 C 254.870 193.248,254.330 193.407,254.000 193.603 M334.400 194.400 C 333.642 194.890,334.870 194.890,336.400 194.400 C 337.380 194.086,337.376 194.079,336.200 194.046 C 335.540 194.027,334.730 194.187,334.400 194.400 M328.200 195.240 C 327.540 195.444,325.650 195.796,324.000 196.022 C 322.350 196.248,320.460 196.623,319.800 196.855 C 319.140 197.087,317.179 197.430,315.441 197.617 C 313.704 197.804,312.084 198.172,311.841 198.433 C 311.505 198.795,311.639 198.846,312.400 198.648 C 312.950 198.504,314.800 198.203,316.510 197.980 C 318.221 197.756,320.077 197.399,320.636 197.186 C 321.195 196.974,322.317 196.800,323.129 196.800 C 323.941 196.800,325.234 196.605,326.003 196.367 C 326.771 196.129,328.840 195.697,330.600 195.407 C 333.756 194.886,333.770 194.879,331.600 194.874 C 330.390 194.871,328.860 195.036,328.200 195.240 M245.200 197.861 C 244.241 198.367,244.236 198.388,245.076 198.394 C 245.558 198.397,246.071 198.208,246.216 197.973 C 246.621 197.318,246.298 197.283,245.200 197.861 M305.200 199.420 C 302.747 200.123,304.668 200.114,307.800 199.408 C 309.969 198.919,310.046 198.869,308.600 198.886 C 307.720 198.896,306.190 199.136,305.200 199.420 M299.093 200.240 C 298.962 200.372,296.907 200.838,294.527 201.275 C 292.147 201.712,289.570 202.225,288.800 202.413 C 286.457 202.988,290.390 202.571,294.200 201.841 C 295.960 201.504,298.750 200.971,300.400 200.657 L 303.400 200.087 301.367 200.043 C 300.248 200.019,299.225 200.108,299.093 200.240 M284.000 203.159 C 283.670 203.344,282.154 203.616,280.632 203.765 C 279.110 203.914,277.580 204.219,277.232 204.442 C 276.754 204.750,276.892 204.796,277.800 204.630 C 278.460 204.510,280.394 204.224,282.098 203.994 C 285.727 203.504,287.791 202.859,285.800 202.838 C 285.140 202.830,284.330 202.975,284.000 203.159 M270.600 205.411 C 269.720 205.701,268.418 205.952,267.706 205.969 C 266.268 206.003,263.035 206.707,261.800 207.255 C 260.628 207.775,263.651 207.299,273.400 205.427 L 276.200 204.890 274.200 204.887 C 273.100 204.885,271.480 205.121,270.600 205.411 M256.200 208.220 L 255.000 208.805 256.200 208.539 C 256.860 208.393,258.210 208.146,259.200 207.990 L 261.000 207.707 259.200 207.671 C 258.210 207.652,256.860 207.899,256.200 208.220 M250.681 209.052 C 250.542 209.191,248.937 209.544,247.114 209.837 C 234.399 211.878,232.903 213.015,228.216 224.200 C 227.848 225.080,227.348 226.205,227.106 226.699 C 226.864 227.194,226.762 227.695,226.879 227.812 C 226.996 227.930,227.326 227.435,227.613 226.713 C 228.166 225.318,230.411 220.327,231.529 218.009 C 232.379 216.247,235.831 212.800,236.747 212.800 C 237.128 212.800,237.626 212.614,237.854 212.386 C 238.081 212.159,239.152 211.820,240.234 211.634 C 241.315 211.448,243.550 211.013,245.200 210.667 C 246.850 210.321,249.460 209.777,251.000 209.458 C 253.157 209.011,253.471 208.869,252.367 208.839 C 251.578 208.818,250.820 208.914,250.681 209.052 M65.602 210.024 C 65.601 210.366,65.864 210.996,66.187 211.424 C 66.951 212.434,66.959 211.996,66.202 210.546 C 65.874 209.916,65.604 209.681,65.602 210.024 M66.806 212.644 C 66.796 213.372,69.165 217.616,71.135 220.400 C 74.541 225.215,76.766 227.556,100.685 251.491 C 111.968 262.781,121.200 272.190,121.200 272.398 C 121.200 272.862,117.517 276.505,115.600 277.938 C 114.830 278.514,113.837 279.348,113.394 279.792 C 112.951 280.237,111.871 281.124,110.994 281.764 C 110.117 282.404,109.040 283.317,108.600 283.792 C 108.160 284.268,107.155 285.094,106.366 285.628 C 105.578 286.163,104.228 287.171,103.366 287.870 C 102.505 288.568,100.180 290.411,98.200 291.965 C 96.220 293.519,94.116 295.242,93.526 295.795 C 92.935 296.348,92.338 296.800,92.199 296.800 C 91.921 296.800,89.429 298.615,88.261 299.666 C 87.854 300.033,86.282 301.203,84.767 302.266 C 83.252 303.330,82.010 304.356,82.006 304.547 C 82.003 304.739,82.630 304.424,83.400 303.847 C 84.170 303.271,85.475 302.305,86.300 301.700 C 87.125 301.095,88.044 300.369,88.343 300.086 C 88.641 299.803,89.901 298.851,91.143 297.969 C 92.384 297.088,94.660 295.375,96.200 294.163 C 97.740 292.951,99.990 291.215,101.200 290.305 C 102.410 289.395,105.045 287.289,107.055 285.625 C 109.065 283.961,111.405 282.035,112.255 281.344 C 114.680 279.372,117.158 277.194,119.782 274.726 L 122.200 272.453 100.784 250.926 C 73.078 223.077,72.227 222.137,68.446 215.200 C 67.547 213.550,66.809 212.400,66.806 212.644 M224.617 232.008 C 223.618 234.046,222.810 235.914,222.822 236.157 C 222.835 236.401,223.733 234.813,224.818 232.629 C 225.903 230.444,226.710 228.577,226.613 228.479 C 226.515 228.382,225.617 229.969,224.617 232.008 M221.628 238.436 C 220.640 240.481,220.616 240.651,221.400 240.000 C 221.730 239.726,222.000 239.200,222.000 238.831 C 222.000 238.462,222.213 237.947,222.473 237.687 C 222.734 237.426,222.836 237.103,222.701 236.968 C 222.566 236.833,222.083 237.494,221.628 238.436 M219.294 243.019 C 218.582 244.258,217.999 245.391,217.998 245.536 C 217.996 245.681,217.723 246.322,217.390 246.960 C 217.058 247.597,216.867 248.201,216.967 248.300 C 217.067 248.400,217.769 247.202,218.528 245.637 C 219.287 244.073,220.125 242.531,220.392 242.210 C 220.658 241.889,220.811 241.433,220.732 241.196 C 220.653 240.959,220.006 241.779,219.294 243.019 M196.573 249.684 C 195.268 251.923,194.125 253.945,194.033 254.177 C 193.942 254.410,193.088 255.815,192.136 257.300 C 191.184 258.785,190.539 259.992,190.703 259.983 C 191.075 259.962,192.485 257.783,194.315 254.400 C 195.089 252.970,196.181 251.080,196.743 250.200 C 198.038 248.170,199.224 245.891,199.067 245.734 C 199.000 245.667,197.878 247.445,196.573 249.684 M214.614 252.414 C 213.588 254.431,212.839 256.173,212.950 256.284 C 213.062 256.395,213.971 254.815,214.971 252.771 C 215.972 250.728,216.720 248.987,216.635 248.902 C 216.550 248.817,215.641 250.397,214.614 252.414 M211.456 258.433 C 210.429 260.661,210.845 260.803,211.919 258.591 C 212.398 257.606,212.657 256.805,212.495 256.810 C 212.333 256.816,211.865 257.546,211.456 258.433 M185.399 268.106 C 182.759 272.308,180.168 276.389,179.641 277.173 C 179.113 277.958,177.412 280.490,175.860 282.800 C 173.152 286.832,161.673 303.012,160.570 304.352 C 160.277 304.708,158.686 306.800,157.036 309.000 C 147.434 321.798,135.030 336.624,125.600 346.573 C 120.169 352.304,119.672 352.705,118.514 352.300 C 118.252 352.208,116.022 346.255,115.180 343.400 C 114.827 342.204,114.827 342.204,114.964 343.600 C 115.040 344.370,115.591 346.260,116.189 347.800 C 116.787 349.340,117.447 351.185,117.657 351.900 C 118.082 353.353,118.365 353.446,119.920 352.641 C 120.916 352.127,128.780 344.050,131.450 340.800 C 132.082 340.030,132.894 339.130,133.254 338.800 C 134.196 337.935,138.027 333.540,139.200 331.979 C 139.750 331.246,140.560 330.274,141.000 329.817 C 141.440 329.361,142.502 328.117,143.359 327.054 C 144.217 325.991,145.222 324.824,145.594 324.460 C 145.966 324.097,146.821 322.990,147.495 322.000 C 148.168 321.010,149.455 319.390,150.354 318.400 C 151.253 317.410,151.991 316.488,151.994 316.351 C 151.997 316.214,152.992 314.864,154.205 313.351 C 157.610 309.102,160.944 304.704,163.600 300.957 C 166.486 296.884,170.684 291.068,171.364 290.200 C 174.016 286.812,190.637 260.903,190.345 260.612 C 190.264 260.531,188.038 263.903,185.399 268.106 M208.561 263.900 C 207.702 265.605,206.936 267.180,206.859 267.400 C 206.556 268.254,207.950 266.095,208.992 264.097 C 209.594 262.940,210.248 261.894,210.444 261.773 C 210.897 261.493,210.909 260.800,210.461 260.800 C 210.274 260.800,209.419 262.195,208.561 263.900 M205.650 269.406 C 205.182 270.198,204.800 270.934,204.800 271.042 C 204.800 271.150,204.213 272.175,203.496 273.319 C 202.779 274.464,201.760 276.300,201.231 277.400 C 200.703 278.500,199.804 280.123,199.235 281.007 C 197.634 283.491,197.298 284.066,196.315 286.000 C 195.812 286.990,195.309 287.890,195.197 288.000 C 194.830 288.359,192.800 291.577,192.800 291.799 C 192.800 291.918,192.350 292.729,191.800 293.600 C 190.660 295.405,190.532 295.921,191.400 295.200 C 191.730 294.926,192.000 294.548,192.000 294.359 C 192.000 294.170,192.599 293.067,193.332 291.908 C 194.065 290.748,194.792 289.530,194.948 289.200 C 195.104 288.870,195.449 288.236,195.716 287.791 C 196.674 286.189,201.527 277.705,204.150 273.047 C 206.541 268.801,207.775 265.803,205.650 269.406 M286.400 285.571 C 285.736 285.954,280.808 287.611,278.000 288.395 C 277.010 288.671,276.020 288.951,275.800 289.017 C 275.580 289.083,275.747 289.151,276.172 289.168 C 277.007 289.203,277.488 289.069,283.180 287.224 C 285.259 286.551,287.140 285.820,287.360 285.600 C 287.853 285.107,287.236 285.088,286.400 285.571 M273.522 289.411 C 273.406 289.528,272.521 289.778,271.555 289.968 C 269.875 290.298,269.860 290.313,271.200 290.326 C 272.754 290.341,276.005 289.283,274.567 289.230 C 274.108 289.214,273.638 289.295,273.522 289.411 M266.400 290.819 C 265.850 291.002,263.060 291.532,260.200 291.995 C 257.340 292.459,253.470 293.092,251.600 293.400 C 249.730 293.709,247.210 294.079,246.000 294.224 C 244.790 294.368,242.990 294.633,242.000 294.812 L 240.200 295.138 242.200 295.001 C 245.594 294.768,251.140 294.086,253.117 293.657 C 254.153 293.433,257.610 292.857,260.800 292.377 C 265.983 291.598,270.460 290.447,268.200 290.475 C 267.760 290.481,266.950 290.635,266.400 290.819 M236.710 295.423 C 236.587 295.546,234.442 295.900,231.943 296.210 C 229.444 296.520,226.140 296.969,224.600 297.208 C 214.670 298.748,212.451 299.144,214.400 299.029 C 217.187 298.865,225.224 297.788,229.400 297.018 C 231.160 296.693,233.230 296.418,234.000 296.406 C 235.994 296.375,239.874 295.285,238.167 295.236 C 237.488 295.216,236.833 295.301,236.710 295.423 M189.702 297.077 C 187.001 300.940,189.476 303.417,194.887 302.267 C 196.489 301.926,198.709 301.535,199.819 301.397 C 200.930 301.260,202.100 300.964,202.419 300.740 C 202.836 300.448,202.605 300.407,201.600 300.597 C 200.830 300.742,199.030 301.021,197.600 301.218 C 196.170 301.414,194.374 301.760,193.609 301.986 C 190.170 303.001,188.208 300.632,190.023 297.655 C 191.035 295.995,190.780 295.535,189.702 297.077 M208.665 299.468 C 208.518 299.616,207.183 299.860,205.699 300.011 L 203.000 300.286 205.200 300.335 C 206.410 300.362,208.300 300.134,209.400 299.828 C 211.110 299.352,211.221 299.266,210.167 299.236 C 209.488 299.216,208.813 299.321,208.665 299.468 M80.800 305.114 C 80.800 305.286,80.215 305.772,79.500 306.194 C 78.785 306.615,77.840 307.296,77.400 307.706 C 76.960 308.117,76.015 308.816,75.300 309.259 C 74.585 309.702,74.000 310.252,74.000 310.481 C 74.000 310.709,74.765 310.283,75.700 309.534 C 76.635 308.784,77.850 307.875,78.400 307.513 C 80.198 306.330,81.811 304.829,81.300 304.814 C 81.025 304.806,80.800 304.941,80.800 305.114 M72.800 311.173 C 72.800 311.378,72.485 311.647,72.100 311.771 C 71.715 311.894,70.927 312.401,70.348 312.898 C 69.770 313.394,68.271 314.520,67.017 315.400 C 63.277 318.025,60.631 319.936,60.117 320.381 C 59.851 320.611,59.446 320.800,59.217 320.800 C 58.988 320.800,58.800 320.951,58.800 321.136 C 58.800 321.320,58.350 321.677,57.800 321.927 C 56.681 322.437,56.510 323.262,57.376 323.980 C 57.806 324.337,64.308 324.475,83.201 324.529 L 108.451 324.600 108.989 325.600 C 109.676 326.874,111.176 331.337,111.588 333.332 C 111.931 334.994,112.800 336.264,112.800 335.104 C 112.800 334.743,112.644 334.351,112.453 334.232 C 112.261 334.114,111.984 333.258,111.835 332.329 C 111.686 331.400,111.425 330.451,111.255 330.220 C 111.084 329.989,110.714 328.990,110.433 328.000 C 110.152 327.010,109.681 325.750,109.386 325.200 L 108.851 324.200 83.325 324.000 C 53.415 323.766,55.288 324.214,62.600 319.035 C 65.240 317.166,67.580 315.486,67.800 315.303 C 68.020 315.120,69.415 314.106,70.900 313.050 C 73.611 311.122,73.940 310.800,73.200 310.800 C 72.980 310.800,72.800 310.968,72.800 311.173 M112.812 337.076 C 112.805 337.558,112.956 338.049,113.147 338.168 C 113.339 338.286,113.609 339.096,113.749 339.968 C 113.888 340.840,114.212 341.684,114.469 341.843 C 114.798 342.046,114.842 341.905,114.618 341.366 C 114.443 340.945,114.174 339.965,114.020 339.190 C 113.630 337.225,112.830 335.824,112.812 337.076 " stroke="none" fill="#fcbccc" fill-rule="evenodd"></path></g></svg>